<svg width="245" height="228" viewBox="0 0 245 228" fill="none" xmlns="http://www.w3.org/2000/svg">
<path fill-rule="evenodd" clip-rule="evenodd" d="M225.84 56.0123C228.256 59.8943 230.778 63.7762 233.3 67.6582C238.87 80.3531 242.127 92.4186 244.019 105.219C246.961 125.992 243.178 145.507 234.141 163.867C226.05 180.339 214.07 193.874 198.939 204.575C182.966 215.906 165.208 223.565 145.978 226.398C110.565 231.539 77.78 224.509 48.6725 202.372C32.595 190.202 19.7751 175.408 11.1584 157.257C5.79929 146.031 2.4367 134.071 0.86048 121.586C-1.34623 104.589 0.755392 88.4318 6.42978 72.6942C13.5753 52.8648 26.08 36.8125 42.9981 24.1175C56.3434 14.0455 71.2649 7.22583 87.4475 3.65865C102.054 0.40622 116.66 -0.957688 131.792 0.720977C147.449 2.50458 162.37 6.17667 176.136 13.1012C183.744 16.8132 190.713 21.9456 197.626 27.0376C199.115 28.1344 200.601 29.2292 202.091 30.3076C211.654 37.3371 219.535 45.9403 225.84 56.0123ZM227.866 70.1731C225.466 66.4731 223.066 62.773 220.766 59.073C214.766 49.473 207.266 41.2731 198.166 34.5731C196.748 33.5452 195.334 32.5017 193.917 31.4563C187.338 26.603 180.707 21.711 173.466 18.1731C160.366 11.5731 146.166 8.07307 131.266 6.37308C116.866 4.77307 102.966 6.07306 89.066 9.17307C73.666 12.5731 59.466 19.0731 46.7661 28.6731C30.666 40.7731 18.766 56.0731 11.966 74.973C6.56601 89.973 4.56602 105.373 6.66602 121.573C8.16602 133.473 11.366 144.873 16.466 155.573C24.666 172.873 36.866 186.973 52.166 198.573C79.866 219.673 111.066 226.373 144.766 221.473C163.066 218.773 179.966 211.473 195.166 200.673C209.566 190.473 220.966 177.573 228.666 161.873C237.266 144.373 240.866 125.773 238.066 105.973C236.266 93.773 233.166 82.2731 227.866 70.1731Z" fill="#A2A2A2"/>
<path fill-rule="evenodd" clip-rule="evenodd" d="M221.988 116.498C221.873 109.613 220.562 104.389 219.201 98.9638C219.122 98.6492 219.042 98.3339 218.963 98.0176C218.41 95.8034 217.859 93.5383 217.388 91.098C216.963 89.9724 216.568 88.8646 216.182 87.7797C216.11 87.5762 216.038 87.3735 215.966 87.1716C214.886 84.1464 213.834 81.2987 212.288 78.6981C202.888 62.2981 191.288 48.098 174.888 37.998C158.388 27.698 140.788 21.2981 121.388 21.2981C110.588 21.2981 99.6878 23.0981 89.0878 25.2981C79.7878 27.1981 71.0878 31.298 63.8878 38.098C60.9878 40.898 60.4878 44.198 62.4878 47.498C64.3878 50.698 66.5878 53.6981 69.1878 56.2981C71.4411 58.4655 73.6869 60.653 75.9336 62.8415L75.9411 62.8488C76.9671 63.8483 77.9956 64.8501 79.0239 65.8491C79.5383 66.3488 80.0531 66.8483 80.5685 67.3474C87.2756 73.8423 94.0789 80.265 101.288 86.1981C118.288 100.198 135.688 113.698 153.588 126.498C166.988 136.098 181.188 144.698 195.688 152.598C206.688 158.598 213.788 155.498 217.088 145.398C220.088 136.198 222.179 127.944 221.988 116.498ZM200.404 147.628C200.864 147.772 201.354 147.927 201.888 148.098C203.457 148.602 205.009 148.825 206.488 148.098C206.783 147.953 206.942 147.879 207.05 147.828C207.214 147.752 207.26 147.73 207.488 147.598C209.136 146.642 210.065 145.935 211.488 144.598C211.89 144.22 212.111 144.002 212.488 143.598C218.017 137.679 217.188 123.398 217.188 123.398C217.188 123.398 216.288 102.098 212.688 91.898C208.788 80.598 202.888 70.3981 195.088 61.2981C186.488 51.3981 177.879 44.5289 164.388 37.6981C153.249 32.0581 146.327 29.7068 133.988 27.7981C120.321 25.684 112.062 25.5849 98.5879 28.6981C88.0387 31.1355 72.8878 39.098 72.8878 39.098C72.8878 39.098 65.8878 43.1981 70.6878 48.7981C73.3252 51.8351 76.282 54.6805 79.2519 57.5385C79.998 58.2565 80.7449 58.9752 81.4878 59.6981C83.0049 61.1393 84.522 62.5869 86.0407 64.0361C90.5284 68.3183 95.0302 72.614 99.5879 76.7981C104.088 80.8981 107.957 84.4076 113.388 89.0981C113.738 89.4006 114.079 89.6955 114.413 89.9835C119.999 94.8099 123.362 97.7155 129.388 102.598C138.943 110.34 145.742 114.688 154.595 120.348C156.979 121.872 159.512 123.491 162.288 125.298C167.039 128.391 170.333 130.444 174.288 132.91C175.843 133.88 177.5 134.913 179.388 136.098C181.089 137.166 182.611 138.078 184.05 138.942C186.571 140.454 188.842 141.816 191.388 143.598C192.428 144.292 192.826 144.497 193.554 144.873C193.686 144.941 193.829 145.015 193.988 145.098C196.444 146.381 198 146.871 200.404 147.628Z" fill="#A2A2A2"/>
<path fill-rule="evenodd" clip-rule="evenodd" d="M22.6878 105.198C21.409 119.179 22.4909 127.756 27.6878 140.798C28.542 142.942 29.0961 144.114 30.0878 146.198C38.9434 164.807 48.4878 176.598 63.1878 187.298C79.3878 199.198 97.5878 205.998 117.488 206.898C127.188 207.298 137.088 206.498 146.688 204.898C158.788 202.898 170.188 198.298 178.988 189.098C181.988 185.898 182.688 180.698 179.988 177.198C178.595 175.357 177.225 173.5 175.857 171.644C171.425 165.636 167.007 159.646 161.888 154.298C151.688 143.498 141.388 132.598 129.788 123.298C117.388 113.398 103.688 104.798 90.0878 96.398L89.2536 95.8833C75.4309 87.3525 61.5723 78.7995 45.8878 73.8981C37.2878 71.2981 31.5878 73.2981 28.5878 81.6981L28.4708 82.0273C25.8204 89.4862 23.5372 95.9116 22.6878 105.198ZM171.888 187.198C171.888 187.198 177.588 183.298 175.688 179.798C169.288 168.198 160.588 158.498 151.488 148.598C150.533 147.719 149.584 146.826 148.634 145.933C145.803 143.27 142.958 140.594 139.888 138.198C134.964 134.212 129.858 130.471 124.758 126.735C123.333 125.691 121.908 124.647 120.488 123.598C118.051 121.835 115.621 120.052 113.187 118.267C106.232 113.164 99.2473 108.039 91.9878 103.298C84.1986 98.1686 75.868 93.6707 67.596 89.2045C67.1597 88.969 66.7236 88.7335 66.2878 88.4981C61.5878 85.9981 51.4878 81.5981 51.4878 81.5981C51.4878 81.5981 46.6941 79.2651 43.3878 79.0981C43.2214 79.0897 43.0594 79.081 42.9012 79.0725C40.8927 78.9651 39.498 78.8905 37.5878 79.7981C35.3472 80.8625 34.4785 82.4166 33.3741 84.3923C33.1583 84.7783 32.9336 85.1804 32.6878 85.5981C26.7629 95.6679 27.8356 106.835 29.3878 120.398C31.3899 137.891 37.4878 149.598 46.2878 162.198C52.1878 170.598 58.3713 176.319 67.9878 183.098C72.6407 186.378 75.4088 188.027 80.4878 190.598C94.9908 197.941 106.588 200.598 120.688 201.398C135.788 202.298 148.778 200.332 163.988 192.098C167.18 190.37 169.488 189.098 171.888 187.198Z" fill="#A2A2A2"/>
</svg>
